<svg width="154" height="148" viewBox="0 0 154 148" fill="none" xmlns="http://www.w3.org/2000/svg">
<g id="airplane" opacity="0.5">
<path id="Vector" d="M84.6575 39.1453C70.9975 52.2153 56.9875 65.3553 42.2375 77.1953C34.9816 82.8207 28.0598 88.8643 21.5075 95.2953C18.7275 98.1153 15.3175 100.725 13.5075 104.295C10.9575 109.425 12.7975 115.385 11.5075 120.735C10.0575 126.835 5.50746 132.735 2.69746 138.245C1.69746 140.245 -0.21253 143.535 2.08747 145.335C8.26747 150.185 19.8875 142.265 25.0875 139.335C34.8875 133.695 44.0275 127.145 53.2875 120.705C62.9575 113.975 73.3575 106.805 80.0475 96.8853C84.5075 90.2653 90.6475 77.3853 80.5075 72.7253C79.1917 72.1557 77.757 71.9154 76.3275 72.0253C74.1907 72.2089 72.1043 72.7745 70.1675 73.6953C63.0975 76.8553 48.4174 88.6953 59.8674 96.0353C79.5774 108.675 102.867 114.315 125.987 115.965C132.637 116.445 139.417 116.965 146.077 116.245C147.357 116.105 151.597 115.955 151.977 114.175C152.977 109.565 145.527 105.565 142.597 103.775C130.047 96.0953 118.407 86.7753 106.497 78.1353C103.017 75.6053 99.6475 73.1353 95.3875 72.0653C94.5875 71.8753 91.9675 71.1953 91.3875 72.2353C90.8075 73.2753 93.2874 74.9453 93.8774 75.2353C96.2574 76.1753 98.5575 74.8853 100.327 73.3453C109.597 65.3453 116.327 54.2153 123.937 44.6853C125.597 42.6253 130.707 37.2153 129.127 34.2453C127.367 30.9453 122.847 28.7553 120.057 26.3953C112.577 20.0653 105.217 13.0353 97.0574 7.56532C94.9074 6.10532 88.0575 0.645304 85.2375 2.0353C83.2375 3.0353 83.8274 7.21531 84.1274 8.82531C85.3574 15.6153 87.3774 22.5953 89.1274 29.3053C89.3074 30.0153 91.6774 36.7353 90.8074 37.1953C88.8074 38.2753 85.0975 33.3053 85.1575 31.6853C85.2775 28.2753 88.7275 26.1453 91.3375 24.6253" stroke="#FEBC80" stroke-width="2" stroke-linejoin="round"/>
<path id="Vector_2" d="M37.4575 74.2453C35.9075 63.9353 33.6975 53.7753 32.4575 43.4053C32.1675 40.8853 30.5775 34.9953 32.9675 33.0153C35.6675 30.7853 40.5675 34.4753 42.5875 36.0153C49.8975 41.7253 56.0174 48.8253 62.4974 55.4253" stroke="#FEBC80" stroke-width="2" stroke-linejoin="round"/>
<path id="Vector_3" fill-rule="evenodd" clip-rule="evenodd" d="M13.1175 111.275C15.7475 109.685 18.4175 108.085 20.9175 106.275C23.4175 104.465 25.9175 101.915 28.5975 100.345C29.1775 100.015 30.1475 101.915 30.2475 102.225C30.7575 103.745 32.3575 108.295 31.4475 109.735C30.5375 111.175 28.5775 112.075 27.0975 112.985C23.9215 114.986 20.5752 116.703 17.0975 118.115C16.0075 118.545 14.8875 118.965 13.7575 119.285C13.6675 119.285 12.7575 119.585 12.7575 119.555C11.7675 117.425 12.9775 113.645 13.1175 111.275Z" fill="#FEBC80"/>
<path id="Vector_4" d="M11.8674 130.805C14.3974 132.745 17.2775 135.395 18.6075 138.415" stroke="#FEBC80" stroke-width="2" stroke-linejoin="round"/>
<path id="Vector_5" d="M104.457 88.1553C110.177 93.5253 116.687 96.8453 123.287 100.865" stroke="#FEBC80" stroke-width="2" stroke-linejoin="round"/>
<path id="Vector_6" d="M44.1174 45.8652C47.8444 50.899 51.8507 55.7199 56.1174 60.3052" stroke="#FEBC80" stroke-width="2" stroke-linejoin="round"/>
</g>
</svg>
