<svg width="76" height="152" viewBox="0 0 76 152" fill="none" xmlns="http://www.w3.org/2000/svg">
<g id="Book" opacity="0.5">
<path id="Vector" fill-rule="evenodd" clip-rule="evenodd" d="M34.78 44.6968C34.2784 50.6194 34.1415 56.5673 34.37 62.5068C34.52 68.0568 34.93 73.6068 35.17 79.1468C35.23 80.3868 35.36 81.6268 35.31 82.8668C35.2655 83.2388 35.2655 83.6148 35.31 83.9868C35.99 84.2668 38.14 82.6568 38.7 82.3068C41.87 80.3068 44.8 77.8268 47.83 75.6068C52.58 72.1068 57.23 68.4868 61.95 64.9668C63.64 63.7168 66.44 62.4268 67.8 60.8068C68.46 60.0168 67.98 56.7368 67.95 55.6968C67.79 50.8368 67.81 45.9468 67.5 41.0868C67.21 36.4168 67.14 31.7168 66.97 27.0868C66.91 25.5468 66.97 24.0068 66.97 22.4568C66.97 21.9768 66.97 21.4568 66.97 21.0168C66.97 20.7468 67.26 20.1468 66.97 20.1968C66.68 20.2468 65.91 21.2768 65.64 21.5568C64.5833 22.6669 63.4212 23.6716 62.17 24.5568C57.48 27.9968 52.68 31.2368 48.17 34.8468C43.66 38.4568 38.99 40.7868 34.78 44.6968Z" fill="#FEBC80"/>
<path id="Vector_2" d="M24.24 39.3766C28.57 34.9266 69.24 6.81663 70.33 7.21663C73.21 8.33663 75.17 114.687 74.67 115.417C73.52 117.127 40.16 145.617 33.87 147.747C33.57 147.847 28.26 52.6766 27.4 48.1566C27.05 46.3466 26.96 43.9166 25.17 42.9066C22.08 41.1666 21.33 43.3766 21.17 46.2466C20.94 50.5066 21.72 54.7066 22.41 58.8966C24.03 68.7666 24.03 78.8167 24.75 88.7767C25.51 99.4167 27.02 109.997 27.55 120.667C27.79 125.527 28.34 130.387 28.43 135.257C28.43 136.857 28.43 138.467 28.55 140.067C28.55 140.907 29.47 142.717 28.65 142.567C25.0732 141.889 21.4552 141.452 17.82 141.257C16.99 141.257 14.29 141.497 13.73 140.937C9.77998 137.027 8.29 42.2266 8.13 42.0766C7.97 41.9266 1 41.5766 1 41.5766C1 41.5766 6.23001 150.017 7.07001 150.787C7.26001 150.957 12.25 146.257 14.07 144.787" stroke="#FEBC80" stroke-width="2" stroke-linejoin="round"/>
<path id="Vector_3" d="M1.04999 38.8767C14.5728 27.5822 28.9081 17.2978 43.94 8.10673C50.52 4.10673 58.66 -1.02329 66.29 3.70671" stroke="#FEBC80" stroke-width="2" stroke-linejoin="round"/>
<path id="Vector_4" d="M59.3 7.98669C53.63 8.24669 48.63 10.9867 43.89 13.8667C36.17 18.6167 28.97 24.2767 21.6 29.5467C18.66 31.6567 15.68 33.6667 12.91 35.9967C12.22 36.5667 10.49 37.6967 10.26 38.6167C10.13 39.1667 11.96 39.9167 12.26 40.0467C14.5991 40.7972 17.008 41.3098 19.45 41.5767" stroke="#FEBC80" stroke-width="2" stroke-linejoin="round"/>
<path id="Vector_5" d="M13.79 44.6968C14.07 56.6968 14.67 69.3468 13.36 81.3568" stroke="#FEBC80" stroke-width="2" stroke-linejoin="round"/>
<path id="Vector_6" d="M23.26 136.877C21.99 126.187 21.9 115.437 21.09 104.717" stroke="#FEBC80" stroke-width="2" stroke-linejoin="round"/>
<path id="Vector_7" d="M16.66 136.377C16.34 128.857 15.89 121.377 15.77 113.807" stroke="#FEBC80" stroke-width="2" stroke-linejoin="round"/>
</g>
</svg>
