<svg width="17" height="16" viewBox="0 0 17 16" fill="none" xmlns="http://www.w3.org/2000/svg">
<g clip-path="url(#clip0_537_9164)">
<path d="M8.30143 14L8.23473 13.8999C7.77163 13.2053 7.54009 12.858 7.23417 12.6065C6.96334 12.3839 6.65128 12.2169 6.31584 12.1151C5.93693 12 5.5195 12 4.68465 12H3.7681C3.02136 12 2.64799 12 2.36278 11.8547C2.1119 11.7268 1.90792 11.5229 1.78009 11.272C1.63477 10.9868 1.63477 10.6134 1.63477 9.86667V4.13333C1.63477 3.3866 1.63477 3.01323 1.78009 2.72801C1.90792 2.47713 2.1119 2.27316 2.36278 2.14532C2.64799 2 3.02136 2 3.7681 2H4.03477C5.52824 2 6.27498 2 6.84541 2.29065C7.34717 2.54631 7.75512 2.95426 8.01078 3.45603C8.30143 4.02646 8.30143 4.77319 8.30143 6.26667M8.30143 14V6.26667M8.30143 14L8.36814 13.8999C8.83123 13.2053 9.06278 12.858 9.3687 12.6065C9.63953 12.3839 9.95159 12.2169 10.287 12.1151C10.6659 12 11.0834 12 11.9182 12H12.8348C13.5815 12 13.9549 12 14.2401 11.8547C14.491 11.7268 14.6949 11.5229 14.8228 11.272C14.9681 10.9868 14.9681 10.6134 14.9681 9.86667V4.13333C14.9681 3.3866 14.9681 3.01323 14.8228 2.72801C14.6949 2.47713 14.491 2.27316 14.2401 2.14532C13.9549 2 13.5815 2 12.8348 2H12.5681C11.0746 2 10.3279 2 9.75746 2.29065C9.25569 2.54631 8.84774 2.95426 8.59208 3.45603C8.30143 4.02646 8.30143 4.77319 8.30143 6.26667" stroke="#10AEDB" stroke-width="2" stroke-linecap="round" stroke-linejoin="round"/>
</g>
<defs>
<clipPath id="clip0_537_9164">
<rect width="16" height="16" fill="white" transform="translate(0.301758)"/>
</clipPath>
</defs>
</svg>
