<svg width="14" height="12" viewBox="0 0 14 12" fill="none" xmlns="http://www.w3.org/2000/svg">
<path d="M11.8014 11.3337H2.80143C2.24801 11.3337 1.71555 11.122 1.31328 10.7419C0.91101 10.3618 0.669431 9.8422 0.638099 9.28966L0.634766 9.16699V2.16699C0.634719 1.78691 0.778963 1.42098 1.03835 1.14316C1.29773 0.865335 1.65291 0.69634 2.0321 0.670326L2.13477 0.666992H10.4681C10.8482 0.666946 11.2141 0.811189 11.4919 1.07057C11.7698 1.32995 11.9388 1.68513 11.9648 2.06433L11.9681 2.16699V2.66699H12.4681C12.8482 2.66695 13.2141 2.81119 13.4919 3.07057C13.7698 3.32995 13.9388 3.68513 13.9648 4.06433L13.9681 4.16699V9.16699C13.9681 9.72042 13.7564 10.2529 13.3763 10.6551C12.9962 11.0574 12.4766 11.299 11.9241 11.3303L11.8014 11.3337ZM2.80143 10.3337H11.8014C12.0943 10.3336 12.3765 10.2234 12.5919 10.025C12.8073 9.82648 12.9402 9.55424 12.9641 9.26233L12.9681 9.16699V4.16699C12.9681 4.04617 12.9243 3.92943 12.8449 3.83837C12.7655 3.74731 12.6558 3.68809 12.5361 3.67166L12.4681 3.66699H11.9681V8.83366C11.9681 8.95448 11.9243 9.07122 11.8449 9.16228C11.7655 9.25334 11.6558 9.31256 11.5361 9.32899L11.4681 9.33366C11.3473 9.33365 11.2305 9.2899 11.1395 9.21048C11.0484 9.13107 10.9892 9.02136 10.9728 8.90166L10.9681 8.83366V2.16699C10.9681 2.04617 10.9243 1.92943 10.8449 1.83837C10.7655 1.74731 10.6558 1.68809 10.5361 1.67166L10.4681 1.66699H2.13477C2.01394 1.667 1.8972 1.71075 1.80615 1.79017C1.71509 1.86959 1.65586 1.97929 1.63943 2.09899L1.63477 2.16699V9.16699C1.63478 9.45979 1.74488 9.74187 1.94322 9.95725C2.14156 10.1726 2.41363 10.3056 2.70543 10.3297L2.80143 10.3337ZM7.46543 7.66699H9.46943C9.59611 7.66703 9.71806 7.71516 9.81063 7.80164C9.90319 7.88813 9.95948 8.00653 9.96812 8.13291C9.97675 8.2593 9.93709 8.38425 9.85714 8.48252C9.7772 8.5808 9.66293 8.64506 9.53743 8.66233L9.46943 8.66699H7.46543C7.33875 8.66695 7.2168 8.61883 7.12424 8.53234C7.03167 8.44586 6.97538 8.32746 6.96675 8.20107C6.95811 8.07468 6.99778 7.94973 7.07772 7.85146C7.15767 7.75319 7.27193 7.68893 7.39743 7.67166L7.46543 7.66699ZM5.46343 5.33699C5.59604 5.33699 5.72322 5.38967 5.81699 5.48344C5.91075 5.57721 5.96343 5.70438 5.96343 5.83699V8.16699C5.96343 8.2996 5.91075 8.42678 5.81699 8.52055C5.72322 8.61431 5.59604 8.66699 5.46343 8.66699H3.13343C3.00082 8.66699 2.87365 8.61431 2.77988 8.52055C2.68611 8.42678 2.63343 8.2996 2.63343 8.16699V5.83699C2.63343 5.70438 2.68611 5.57721 2.77988 5.48344C2.87365 5.38967 3.00082 5.33699 3.13343 5.33699H5.46343ZM4.96343 6.33699H3.63343V7.66699H4.96343V6.33699ZM7.46543 5.33699H9.46943C9.59611 5.33703 9.71806 5.38516 9.81063 5.47164C9.90319 5.55813 9.95948 5.67652 9.96812 5.80291C9.97675 5.9293 9.93709 6.05425 9.85714 6.15252C9.7772 6.2508 9.66293 6.31506 9.53743 6.33233L9.46943 6.33699H7.46543C7.33785 6.33829 7.21459 6.29076 7.12091 6.20414C7.02723 6.11753 6.9702 5.99837 6.96151 5.87108C6.95282 5.74378 6.99312 5.61798 7.07416 5.51943C7.1552 5.42088 7.27085 5.35705 7.39743 5.34099L7.46543 5.33699ZM3.13343 3.00166H9.46943C9.59702 3.00036 9.72027 3.04789 9.81395 3.13451C9.90764 3.22112 9.96466 3.34028 9.97336 3.46758C9.98205 3.59487 9.94174 3.72067 9.8607 3.81922C9.77966 3.91777 9.66401 3.9816 9.53743 3.99766L9.46943 4.00166H3.13343C3.00675 4.00162 2.8848 3.9535 2.79224 3.86701C2.69967 3.78053 2.64338 3.66213 2.63475 3.53574C2.62611 3.40935 2.66578 3.2844 2.74572 3.18613C2.82567 3.08786 2.93993 3.02359 3.06543 3.00633L3.13343 3.00166Z" fill="#10AEDB"/>
</svg>
