<svg width="15" height="14" viewBox="0 0 15 14" fill="none" xmlns="http://www.w3.org/2000/svg">
<path d="M5.30176 10.9996V3.23659C5.30176 2.91556 5.30176 2.75505 5.36016 2.62486C5.41164 2.51011 5.49454 2.41225 5.59927 2.34261C5.71808 2.2636 5.87641 2.23721 6.19307 2.18443L12.0597 1.20665C12.487 1.13544 12.7007 1.09983 12.8672 1.16167C13.0133 1.21595 13.1358 1.31971 13.2134 1.45492C13.3018 1.609 13.3018 1.8256 13.3018 2.25881V9.66632M5.30176 10.9996C5.30176 12.1042 4.40633 12.9996 3.30176 12.9996C2.19719 12.9996 1.30176 12.1042 1.30176 10.9996C1.30176 9.89508 2.19719 8.99965 3.30176 8.99965C4.40633 8.99965 5.30176 9.89508 5.30176 10.9996ZM13.3018 9.66632C13.3018 10.7709 12.4063 11.6663 11.3018 11.6663C10.1972 11.6663 9.30176 10.7709 9.30176 9.66632C9.30176 8.56175 10.1972 7.66632 11.3018 7.66632C12.4063 7.66632 13.3018 8.56175 13.3018 9.66632Z" stroke="#10AEDB" stroke-width="2" stroke-linecap="round" stroke-linejoin="round"/>
</svg>
