<svg width="16" height="16" viewBox="0 0 16 16" fill="none" xmlns="http://www.w3.org/2000/svg">
<path d="M2.9681 9.33327L4.01786 13.5323C4.04739 13.6504 4.06215 13.7095 4.07961 13.761C4.25021 14.2647 4.70378 14.6188 5.23378 14.6622C5.28803 14.6666 5.3489 14.6666 5.47063 14.6666C5.62306 14.6666 5.69928 14.6666 5.76348 14.6604C6.3981 14.5988 6.90032 14.0966 6.96187 13.462C6.9681 13.3978 6.9681 13.3216 6.9681 13.1691V3.66661M12.6348 8.99994C13.9234 8.99994 14.9681 7.95527 14.9681 6.66661C14.9681 5.37794 13.9234 4.33327 12.6348 4.33327M7.13476 3.66661H4.63477C2.97791 3.66661 1.63476 5.00975 1.63477 6.66661C1.63477 8.32346 2.97791 9.66661 4.63477 9.66661H7.13477C8.31239 9.66661 9.75293 10.2979 10.8643 10.9037C11.5127 11.2571 11.8368 11.4339 12.0491 11.4079C12.246 11.3837 12.3949 11.2953 12.5103 11.134C12.6348 10.96 12.6348 10.6119 12.6348 9.91575V3.41746C12.6348 2.72127 12.6348 2.37317 12.5103 2.1992C12.3949 2.03788 12.246 1.94947 12.0491 1.92536C11.8368 1.89936 11.5127 2.07607 10.8643 2.42951C9.75293 3.03535 8.31238 3.66661 7.13476 3.66661Z" stroke="#10AEDB" stroke-width="2" stroke-linecap="round" stroke-linejoin="round"/>
</svg>
