<svg width="16" height="16" viewBox="0 0 16 16" fill="none" xmlns="http://www.w3.org/2000/svg">
<path d="M14.3021 13.9996H8.96877M1.96875 14.3329L5.66826 12.91C5.90489 12.819 6.0232 12.7735 6.1339 12.7141C6.23222 12.6613 6.32595 12.6004 6.41411 12.532C6.51336 12.4549 6.603 12.3653 6.78227 12.186L14.3021 4.66622C15.0385 3.92984 15.0385 2.73593 14.3021 1.99955C13.5657 1.26317 12.3718 1.26317 11.6354 1.99955L4.1156 9.51936C3.93633 9.69864 3.8467 9.78827 3.76968 9.88752C3.70127 9.97569 3.64035 10.0694 3.58757 10.1677C3.52815 10.2784 3.48265 10.3967 3.39164 10.6334L1.96875 14.3329ZM1.96875 14.3329L3.34083 10.7655C3.43901 10.5102 3.48811 10.3826 3.57231 10.3241C3.6459 10.273 3.73695 10.2537 3.82495 10.2705C3.92564 10.2898 4.02234 10.3865 4.21574 10.5799L5.7218 12.0859C5.9152 12.2793 6.0119 12.376 6.03113 12.4767C6.04793 12.5647 6.02861 12.6558 5.97751 12.7293C5.91905 12.8135 5.79141 12.8626 5.53613 12.9608L1.96875 14.3329Z" stroke="#10AEDB" stroke-width="2" stroke-linecap="round" stroke-linejoin="round"/>
</svg>
