<svg width="152" height="135" viewBox="0 0 152 135" fill="none" xmlns="http://www.w3.org/2000/svg">
<g id="cetificade" opacity="0.5">
<path id="Vector" d="M73.0324 48.0736C70.6074 43.4237 67.7977 38.9849 64.6324 34.8036C56.8324 24.8036 47.4624 14.5336 36.7124 7.61361C33.3424 5.45361 29.1824 1.91356 24.9124 1.81356C19.3924 1.69356 13.6524 5.49359 9.67238 8.96359C6.77184 11.3456 4.38961 14.2962 2.67238 17.6336C1.47783 20.0368 0.906952 22.7019 1.01234 25.3836C1.20234 30.7536 3.14234 40.6136 10.7623 36.9236C17.0023 33.9236 21.7624 26.3736 25.3724 20.6936C27.6224 17.1736 29.6623 11.4836 25.6423 8.26357C21.3223 4.79357 15.1324 9.41362 12.2924 12.6836C6.77237 19.0436 2.56237 32.0336 7.79237 40.1136C10.1524 43.7636 14.8924 44.9736 18.7924 46.1136C28.4024 48.8336 37.8624 49.6436 47.7424 50.7836C49.1724 50.9536 50.6124 51.1136 52.0524 51.2536C53.1224 51.3536 54.2024 51.4436 55.2824 51.5236C56.1824 51.5936 57.0824 51.6436 57.9924 51.6436C58.7324 51.6436 59.4824 51.6436 60.2324 51.6436C61.4224 51.6436 69.5323 52.2736 67.5123 49.3936C67.0823 48.7936 66.5823 50.4436 66.5123 50.7736C66.2071 52.092 66.2278 53.4649 66.5724 54.7736C67.3524 58.1536 69.1824 62.6336 72.1924 64.6736C72.7224 65.0236 74.5024 66.2236 75.1924 66.0736C76.6224 65.7836 77.6124 63.6336 78.1924 62.5036C80.0824 58.8736 82.1924 53.7036 82.5224 49.5736C82.8124 45.8136 79.8524 44.4436 77.2424 46.9936C74.1124 50.0536 72.7024 54.7436 70.6924 58.5636C68.0624 63.5636 67.2824 68.5636 65.8124 73.9936C62.9824 84.3836 60.3324 95.0436 55.8124 104.864C54.0924 108.634 52.3624 112.474 49.7424 115.714C48.3624 117.424 45.4624 119.144 44.4924 121.034C43.9424 122.114 47.3924 124.384 48.1024 124.774C49.5024 125.554 55.9024 128.024 57.7724 127.284C63.6424 124.934 63.4223 114.354 64.6423 109.284C67.3423 98.2136 70.2923 87.5436 69.7623 76.0336C69.6323 73.2036 70.0224 69.2036 68.8824 66.5336C68.5124 65.6636 65.0624 66.5936 64.5324 66.7436C59.8324 68.0336 55.6423 71.4936 52.0123 74.6236C39.5923 85.3236 30.5724 99.1936 23.7824 113.964C22.1444 117.198 20.7246 120.539 19.5324 123.964C19.3724 124.484 18.3724 126.444 18.4724 126.904C18.6924 127.974 19.8624 129.014 20.6124 129.704C22.2294 131.115 24.0541 132.268 26.0224 133.124C26.2124 133.214 27.5924 134.044 27.8724 133.934C29.1124 133.434 29.6824 129.884 29.8724 128.934C30.882 123.889 32.3929 118.958 34.3824 114.214C40.7624 99.5036 49.6624 83.8036 61.3224 72.5336" stroke="#FEBC80" stroke-width="2" stroke-linejoin="round"/>
<path id="Vector_2" d="M82.1924 63.2435C86.9124 66.3035 90.5424 70.6135 94.3624 74.6735C100.242 80.9335 106.092 87.3235 112.542 93.0035C115.162 95.3135 118.002 97.3735 120.782 99.4835C121.662 100.164 122.912 101.693 124.012 101.953C125.112 102.213 126.542 101.204 127.452 100.594C129.622 99.1335 131.772 97.6535 133.852 96.0635C140.792 90.7435 147.802 84.4035 149.972 75.6035C150.572 73.1535 151.162 68.7435 149.602 66.4235C148.402 64.6435 146.232 63.8835 144.342 63.0935C140.842 61.6235 137.272 60.3535 133.752 58.9735C118.702 53.0535 103.442 48.6235 87.3124 47.3335" stroke="#FEBC80" stroke-width="2" stroke-linejoin="round"/>
</g>
</svg>
