<svg width="17" height="17" viewBox="0 0 17 17" fill="none" xmlns="http://www.w3.org/2000/svg">
<g id="book-open-01" clip-path="url(#clip0_396_5955)">
<path id="Icon" d="M8.30078 14.2971L8.23407 14.1971C7.77098 13.5024 7.53943 13.1551 7.23351 12.9037C6.96268 12.6811 6.65062 12.5141 6.31518 12.4122C5.93628 12.2971 5.51885 12.2971 4.68399 12.2971H3.76744C3.02071 12.2971 2.64734 12.2971 2.36212 12.1518C2.11124 12.024 1.90727 11.82 1.77943 11.5691C1.63411 11.2839 1.63411 10.9105 1.63411 10.1638V4.43045C1.63411 3.68372 1.63411 3.31035 1.77943 3.02513C1.90727 2.77425 2.11124 2.57027 2.36212 2.44244C2.64734 2.29712 3.02071 2.29712 3.76744 2.29712H4.03411C5.52758 2.29712 6.27432 2.29712 6.84475 2.58777C7.34652 2.84343 7.75446 3.25138 8.01013 3.75314C8.30078 4.32358 8.30078 5.07031 8.30078 6.56379M8.30078 14.2971V6.56379M8.30078 14.2971L8.36748 14.1971C8.83057 13.5024 9.06212 13.1551 9.36804 12.9037C9.63887 12.6811 9.95093 12.5141 10.2864 12.4122C10.6653 12.2971 11.0827 12.2971 11.9176 12.2971H12.8341C13.5808 12.2971 13.9542 12.2971 14.2394 12.1518C14.4903 12.024 14.6943 11.82 14.8221 11.5691C14.9674 11.2839 14.9674 10.9105 14.9674 10.1638V4.43045C14.9674 3.68372 14.9674 3.31035 14.8221 3.02513C14.6943 2.77425 14.4903 2.57027 14.2394 2.44244C13.9542 2.29712 13.5808 2.29712 12.8341 2.29712H12.5674C11.074 2.29712 10.3272 2.29712 9.7568 2.58777C9.25504 2.84343 8.84709 3.25138 8.59143 3.75314C8.30078 4.32358 8.30078 5.07031 8.30078 6.56379" stroke="#757779" stroke-width="2" stroke-linecap="round" stroke-linejoin="round"/>
</g>
<defs>
<clipPath id="clip0_396_5955">
<rect width="16" height="16" fill="white" transform="translate(0.300781 0.297119)"/>
</clipPath>
</defs>
</svg>
