<svg width="17" height="17" viewBox="0 0 17 17" fill="none" xmlns="http://www.w3.org/2000/svg">
<g id="announcement-02" clip-path="url(#clip0_396_6133)">
<path id="Icon" d="M2.96744 9.63039L4.01721 13.8294C4.04673 13.9475 4.06149 14.0066 4.07896 14.0581C4.24955 14.5618 4.70312 14.9159 5.23312 14.9593C5.28738 14.9637 5.34824 14.9637 5.46997 14.9637C5.6224 14.9637 5.69862 14.9637 5.76283 14.9575C6.39744 14.8959 6.89967 14.3937 6.96122 13.7591C6.96744 13.6949 6.96744 13.6187 6.96744 13.4663V3.96373M12.6341 9.29706C13.9228 9.29706 14.9674 8.25239 14.9674 6.96373C14.9674 5.67506 13.9228 4.63039 12.6341 4.63039M7.13411 3.96373H4.63411C2.97725 3.96373 1.63411 5.30687 1.63411 6.96373C1.63411 8.62058 2.97726 9.96373 4.63411 9.96373H7.13411C8.31173 9.96373 9.75227 10.595 10.8636 11.2008C11.512 11.5543 11.8362 11.731 12.0485 11.705C12.2454 11.6809 12.3942 11.5925 12.5097 11.4311C12.6341 11.2572 12.6341 10.9091 12.6341 10.2129V3.71458C12.6341 3.01839 12.6341 2.67029 12.5097 2.49632C12.3942 2.33499 12.2454 2.24659 12.0485 2.22248C11.8362 2.19647 11.512 2.37319 10.8636 2.72663C9.75227 3.33247 8.31173 3.96373 7.13411 3.96373Z" stroke="#757779" stroke-width="2" stroke-linecap="round" stroke-linejoin="round"/>
</g>
<defs>
<clipPath id="clip0_396_6133">
<rect width="16" height="16" fill="white" transform="translate(0.300781 0.297119)"/>
</clipPath>
</defs>
</svg>
